<mxfile host="app.diagrams.net" modified="2024-03-28T01:35:21.724Z" agent="Mozilla/5.0 (Windows NT 10.0; Win64; x64) AppleWebKit/537.36 (KHTML, like Gecko) Chrome/123.0.0.0 Safari/537.36" version="24.1.0" etag="c8Xi4t754HkVyTCq2ffa" type="github">
  <diagram name="第 1 页" id="IO0ZxWXgcGTj1ivFo3Ba">
    <mxGraphModel>
      <root>
        <mxCell id="0" />
        <mxCell id="1" parent="0" />
      </root>
    </mxGraphModel>
  </diagram>
</mxfile>
